<svg width="24" height="25" viewBox="0 0 24 25" fill="none" xmlns="http://www.w3.org/2000/svg">
<path d="M22.8749 10.1875H1.12506C0.917561 10.1875 0.75 10.3551 0.75 10.5626V20.5C0.75 23 2 24.25 4.5 24.25H19.5C22 24.25 23.25 23 23.25 20.5V10.5626C23.25 10.3551 23.0824 10.1875 22.8749 10.1875ZM7.02502 20.5C6.33502 20.5 5.76862 19.94 5.76862 19.25C5.76862 18.56 6.32251 18 7.01251 18H7.02502C7.71627 18 8.27502 18.56 8.27502 19.25C8.27502 19.94 7.71502 20.5 7.02502 20.5ZM7.02502 15.5C6.33502 15.5 5.76862 14.94 5.76862 14.25C5.76862 13.56 6.32251 13 7.01251 13H7.02502C7.71627 13 8.27502 13.56 8.27502 14.25C8.27502 14.94 7.71502 15.5 7.02502 15.5ZM12.025 20.5C11.335 20.5 10.7686 19.94 10.7686 19.25C10.7686 18.56 11.3225 18 12.0125 18H12.025C12.7163 18 13.275 18.56 13.275 19.25C13.275 19.94 12.715 20.5 12.025 20.5ZM12.025 15.5C11.335 15.5 10.7686 14.94 10.7686 14.25C10.7686 13.56 11.3225 13 12.0125 13H12.025C12.7163 13 13.275 13.56 13.275 14.25C13.275 14.94 12.715 15.5 12.025 15.5ZM17.025 20.5C16.335 20.5 15.7686 19.94 15.7686 19.25C15.7686 18.56 16.3225 18 17.0125 18H17.025C17.7163 18 18.275 18.56 18.275 19.25C18.275 19.94 17.715 20.5 17.025 20.5ZM17.025 15.5C16.335 15.5 15.7686 14.94 15.7686 14.25C15.7686 13.56 16.3225 13 17.0125 13H17.025C17.7163 13 18.275 13.56 18.275 14.25C18.275 14.94 17.715 15.5 17.025 15.5ZM23.25 7.375V7.93744C23.25 8.14494 23.0824 8.3125 22.8749 8.3125H1.12506C0.917561 8.3125 0.75 8.14494 0.75 7.93744V7.375C0.75 4.875 2 3.625 4.5 3.625H6.0625V1.75C6.0625 1.2375 6.4875 0.8125 7 0.8125C7.5125 0.8125 7.9375 1.2375 7.9375 1.75V3.625H16.0625V1.75C16.0625 1.2375 16.4875 0.8125 17 0.8125C17.5125 0.8125 17.9375 1.2375 17.9375 1.75V3.625H19.5C22 3.625 23.25 4.875 23.25 7.375Z" fill="#91C6EA"/>
</svg>
