<svg width="24" height="24" viewBox="0 0 24 24" fill="none" xmlns="http://www.w3.org/2000/svg">
<path d="M19.0312 0.75H4.96875C2.15625 0.75 0.75 2.15625 0.75 4.96875V19.0312C0.75 21.8438 2.15625 23.25 4.96875 23.25H19.0312C21.8438 23.25 23.25 21.8438 23.25 19.0312V4.96875C23.25 2.15625 21.8438 0.75 19.0312 0.75ZM16.4125 16.4125C16.23 16.595 15.99 16.6875 15.75 16.6875C15.51 16.6875 15.27 16.5963 15.0875 16.4125L11.3375 12.6625C11.1612 12.4863 11.0625 12.2475 11.0625 12V5.75C11.0625 5.2325 11.4825 4.8125 12 4.8125C12.5175 4.8125 12.9375 5.2325 12.9375 5.75V11.6112L16.4125 15.0862C16.7788 15.4537 16.7788 16.0463 16.4125 16.4125Z" fill="#91C6EA"/>
</svg>
