<svg width="30" height="30" viewBox="0 0 30 30" fill="none" xmlns="http://www.w3.org/2000/svg">
<path d="M27.5977 15.3164L15.2871 2.91797L15.1992 2.83008H15.1758C14.6895 2.36719 14.127 2.12695 13.4238 2.10938L7.58203 1.89258L7.32422 1.88086C6.66797 1.89258 6.02344 2.14453 5.52539 2.64844L2.64258 5.52539C2.11523 6.05274 1.875 6.75 1.875 7.44141V7.44727L1.89258 7.69336L2.28516 13.3945V13.5176C2.34375 14.0273 2.54883 14.5313 2.89453 14.9473L3.2168 15.2637L15.3047 27.498L15.4863 27.6797C16.1836 28.2949 17.2441 28.2656 17.9062 27.5977L27.5977 17.8359C28.2891 17.1445 28.3008 16.0137 27.5977 15.3164ZM8.4375 11.25C6.88477 11.25 5.625 9.99024 5.625 8.4375C5.625 6.88477 6.88477 5.625 8.4375 5.625C9.99023 5.625 11.25 6.88477 11.25 8.4375C11.25 9.99024 9.99023 11.25 8.4375 11.25Z" fill="#91C6EA"/>
</svg>
