<svg width="30" height="30" viewBox="0 0 30 30" fill="none" xmlns="http://www.w3.org/2000/svg">
<path d="M24.9354 17.211C24.4784 19.0835 23.5031 20.7894 22.1212 22.1331C20.7392 23.4768 19.0067 24.4038 17.122 24.808C17.0804 24.8161 17.0429 24.8381 17.0157 24.8706C16.9884 24.903 16.9732 24.9438 16.9725 24.9862V26.9204C16.9726 26.9477 16.9786 26.9747 16.9902 26.9994C17.0017 27.0242 17.0185 27.0461 17.0394 27.0637C17.0603 27.0812 17.0848 27.094 17.1112 27.1012C17.1375 27.1083 17.1651 27.1096 17.192 27.105C19.6563 26.6614 21.9311 25.4897 23.723 23.7409C25.5149 21.992 26.7417 19.7464 27.245 17.2937C27.2502 17.2666 27.2493 17.2386 27.2424 17.2119C27.2355 17.1851 27.2228 17.1602 27.2052 17.139C27.1875 17.1177 27.1654 17.1006 27.1404 17.0888C27.1154 17.0771 27.0882 17.071 27.0605 17.071H25.1167C25.0754 17.0716 25.0354 17.0855 25.0027 17.1108C24.97 17.136 24.9464 17.1712 24.9354 17.211ZM4.89298 17.0678H2.93964C2.9121 17.0677 2.88488 17.0738 2.85998 17.0855C2.83508 17.0973 2.81313 17.1145 2.79574 17.1358C2.77835 17.1572 2.76597 17.1822 2.75949 17.2089C2.75301 17.2357 2.7526 17.2636 2.7583 17.2905C3.25154 19.7079 4.44756 21.9258 6.19636 23.6661C7.94516 25.4065 10.1689 26.5917 12.5886 27.0731C12.6153 27.0783 12.6429 27.0775 12.6692 27.0708C12.6956 27.064 12.7202 27.0516 12.7411 27.0342C12.7621 27.0169 12.779 26.9951 12.7906 26.9705C12.8022 26.9459 12.8082 26.919 12.8081 26.8918V24.9385C12.8078 24.897 12.7934 24.8569 12.7675 24.8246C12.7415 24.7922 12.7054 24.7696 12.665 24.7603C10.8255 24.3246 9.14218 23.3889 7.80098 22.0567C6.45978 20.7245 5.51285 19.0475 5.06477 17.211C5.05486 17.1712 5.03197 17.1358 4.99971 17.1104C4.96744 17.0851 4.92765 17.0712 4.88661 17.071L4.89298 17.0678ZM16.9821 2.6882V4.61927C16.9826 4.662 16.9977 4.70327 17.0249 4.73624C17.0521 4.76921 17.0897 4.79192 17.1316 4.80061C19.0766 5.21817 20.858 6.19285 22.2584 7.60571C23.6588 9.01857 24.6177 10.8085 25.0181 12.7571C25.0268 12.799 25.0495 12.8366 25.0825 12.8638C25.1154 12.891 25.1567 12.9061 25.1994 12.9067H27.1305C27.1575 12.9065 27.1841 12.9006 27.2086 12.8892C27.2331 12.8778 27.2548 12.8613 27.2723 12.8408C27.2899 12.8202 27.3027 12.7962 27.3101 12.7702C27.3175 12.7442 27.3191 12.717 27.315 12.6903C26.8753 10.1602 25.6682 7.82638 23.8574 6.00534C22.0466 4.1843 19.7197 2.96407 17.192 2.51005C17.1654 2.50546 17.1381 2.50668 17.1119 2.51363C17.0858 2.52058 17.0615 2.53309 17.0406 2.55031C17.0198 2.56753 17.0029 2.58905 16.9911 2.6134C16.9794 2.63775 16.973 2.66435 16.9725 2.69138L16.9821 2.6882ZM2.86965 12.9067H4.81981C4.86215 12.906 4.90297 12.8907 4.93541 12.8635C4.96785 12.8363 4.98993 12.7987 4.99796 12.7571C5.39119 10.8464 6.32149 9.08758 7.67959 7.68721C9.0377 6.28684 10.7672 5.30309 12.665 4.85151C12.7054 4.84108 12.7413 4.81771 12.7671 4.78496C12.793 4.75221 12.8074 4.71189 12.8081 4.67017V2.72956C12.8086 2.70208 12.803 2.67484 12.7916 2.64982C12.7802 2.6248 12.7634 2.60264 12.7424 2.58496C12.7213 2.56727 12.6966 2.55451 12.67 2.54761C12.6434 2.5407 12.6156 2.53982 12.5886 2.54504C10.1067 3.03809 7.83238 4.27133 6.06512 6.08232C4.29785 7.89331 3.12057 10.1971 2.68831 12.6903C2.68367 12.7168 2.68488 12.744 2.69185 12.77C2.69882 12.7959 2.71138 12.8201 2.72866 12.8407C2.74593 12.8613 2.7675 12.8779 2.79185 12.8893C2.81621 12.9007 2.84276 12.9066 2.86965 12.9067Z" fill="#91C6EA"/>
<path d="M14.9998 17.8409C16.676 17.8409 18.0348 16.4821 18.0348 14.8059C18.0348 13.1297 16.676 11.7709 14.9998 11.7709C13.3237 11.7709 11.9648 13.1297 11.9648 14.8059C11.9648 16.4821 13.3237 17.8409 14.9998 17.8409Z" fill="#91C6EA"/>
<path d="M29.4687 13.8674H23.2078C22.9985 12.0467 22.1904 10.347 20.9103 9.03525C19.6303 7.72355 17.9509 6.87412 16.1357 6.62036V0.534464C16.1357 0.392716 16.0794 0.256773 15.9792 0.156541C15.879 0.0563095 15.743 0 15.6013 0H14.3987C14.257 0 14.121 0.0563095 14.0208 0.156541C13.9206 0.256773 13.8643 0.392716 13.8643 0.534464V6.62036C12.0491 6.87412 10.3697 7.72355 9.08965 9.03525C7.80962 10.347 7.00148 12.0467 6.79215 13.8674H0.531283C0.390378 13.8674 0.255244 13.9234 0.155609 14.0231C0.0559743 14.1227 0 14.2578 0 14.3987V15.6013C-2.50134e-06 15.7425 0.0558701 15.8779 0.155415 15.9781C0.254959 16.0782 0.390086 16.1349 0.531283 16.1357H6.84624C7.13199 17.8772 7.96724 19.4816 9.22991 20.7145C10.4926 21.9475 12.1165 22.7442 13.8643 22.9883V29.4687C13.8651 29.6099 13.9218 29.745 14.0219 29.8446C14.1221 29.9441 14.2575 30 14.3987 30H15.6013C15.7425 30 15.8779 29.9441 15.9781 29.8446C16.0782 29.745 16.1349 29.6099 16.1357 29.4687V22.9883C17.8835 22.7442 19.5074 21.9475 20.7701 20.7145C22.0328 19.4816 22.868 17.8772 23.1538 16.1357H29.4687C29.6099 16.1349 29.745 16.0782 29.8446 15.9781C29.9441 15.8779 30 15.7425 30 15.6013V14.3987C30 14.2578 29.944 14.1227 29.8444 14.0231C29.7448 13.9234 29.6096 13.8674 29.4687 13.8674ZM15 20.7996C13.8146 20.7996 12.6558 20.4481 11.6701 19.7895C10.6845 19.1309 9.91624 18.1948 9.4626 17.0996C9.00896 16.0044 8.89026 14.7993 9.12153 13.6366C9.35279 12.474 9.92363 11.406 10.7619 10.5678C11.6001 9.72957 12.668 9.15873 13.8307 8.92747C14.9934 8.6962 16.1985 8.8149 17.2937 9.26854C18.3889 9.72218 19.3249 10.4904 19.9835 11.4761C20.6421 12.4617 20.9936 13.6205 20.9936 14.8059C20.992 16.395 20.3599 17.9186 19.2363 19.0422C18.1126 20.1659 16.5891 20.7979 15 20.7996Z" fill="#91C6EA"/>
</svg>
